<svg width="174" height="229" viewBox="0 0 174 229" fill="none" xmlns="http://www.w3.org/2000/svg">
<path d="M32.9841 215.091L32.2815 215.008C12.6852 212.678 -0.728104 194.089 3.23859 174.757L10.601 138.877C13.9607 122.503 28.3708 110.75 45.0852 110.75H87.9243H86.7122H129.551C146.266 110.75 160.676 122.503 164.035 138.877L171.398 174.757C175.365 194.089 161.951 212.678 142.355 215.008L141.652 215.091H32.9841Z" fill="#4D5A6A"/>
<path d="M32.9684 215.361H141.652L142.386 215.276C151.802 214.156 160.383 209.104 165.931 201.415C171.479 193.727 173.567 183.991 171.662 174.703L164.3 138.823C160.929 122.401 146.316 110.481 129.551 110.481H45.0853C28.3208 110.481 13.7076 122.4 10.3374 138.823L2.97481 174.703C1.06912 183.991 3.15834 193.727 8.7057 201.416C14.2536 209.105 22.8351 214.156 32.2502 215.276L32.9684 215.361ZM129.551 111.02C146.061 111.02 160.453 122.758 163.772 138.931L171.134 174.811C173.009 183.951 170.954 193.533 165.494 201.1C160.035 208.667 151.589 213.639 142.323 214.741L141.621 214.824L33 214.822L32.3131 214.741C23.0475 213.639 14.6021 208.668 9.14261 201.101C3.6826 193.534 1.627 183.952 3.50276 174.812L10.8653 138.931C14.1836 122.758 28.5753 111.02 45.0853 111.02L129.551 111.02Z" fill="#000072"/>
<g opacity="0.3">
<path d="M32.2811 215.011L32.9818 215.093H141.652L142.353 215.011C154.891 213.522 164.895 205.369 169.444 194.635C164.468 199.109 158.109 202.151 150.914 203.01L150.213 203.091H41.5432L40.8424 203.01C21.2435 200.68 7.82912 182.091 11.8002 162.761L19.1585 126.88C19.6549 124.468 20.3908 122.161 21.3368 119.971C15.9991 124.842 12.1388 131.371 10.603 138.875L3.23878 174.756C-0.72641 194.086 12.688 212.681 32.2811 215.011Z" fill="#000072"/>
</g>
<g opacity="0.55">
<path d="M27.7141 115.334C31.7262 113.752 36.0828 112.893 40.6088 112.893H125.072C141.786 112.893 156.199 124.643 159.557 141.019L166.921 176.899C169.946 191.645 162.862 205.953 150.634 212.949C165.549 207.144 174.776 191.219 171.4 174.756L164.036 138.875C160.678 122.506 146.265 110.75 129.551 110.75H45.0879C38.816 110.75 32.8709 112.403 27.7141 115.334Z" fill="white"/>
</g>
<path d="M32.984 216.843H141.652C141.721 216.843 141.79 216.839 141.858 216.831L142.561 216.748C152.388 215.58 161.344 210.307 167.133 202.283C172.923 194.259 175.103 184.098 173.114 174.405L165.752 138.525C162.241 121.416 147.016 108.998 129.551 108.998H45.0852C27.6202 108.998 12.3954 121.416 8.88475 138.525L1.52216 174.405C-0.466675 184.098 1.71352 194.259 7.5033 202.284C13.2931 210.308 22.249 215.58 32.0748 216.748L32.7773 216.831C32.8463 216.84 32.9151 216.843 32.984 216.843ZM141.549 213.34H33.0876L32.4877 213.268C23.6337 212.216 15.5623 207.464 10.3447 200.233C5.12709 193.002 3.16249 183.845 4.95509 175.109L12.3177 139.229C15.4955 123.742 29.2762 112.502 45.0853 112.502H129.551C145.361 112.502 159.141 123.742 162.319 139.229L169.681 175.109C171.474 183.844 169.51 193.001 164.292 200.233C159.074 207.464 151.003 212.216 142.148 213.268L141.549 213.34Z" fill="#000072"/>
<path d="M24.9285 84.2483C25.0336 84.6571 25.1446 85.0718 25.2556 85.4747C25.3431 85.7842 25.4308 86.0879 25.5184 86.3916C25.5534 86.5084 25.5826 86.6194 25.6235 86.7361C25.6936 86.9873 25.7753 87.2384 25.8513 87.4836C25.9506 87.8049 26.0557 88.1203 26.1608 88.4356C26.2075 88.5757 26.2543 88.7159 26.3009 88.8502C26.4528 89.3057 26.6104 89.7554 26.7798 90.1992C26.9551 90.6898 27.1419 91.1745 27.3347 91.6533C27.5216 92.1381 27.7201 92.617 27.9245 93.0958C28.1231 93.5688 28.3334 94.0477 28.5494 94.515C28.7538 94.9704 28.964 95.4202 29.1801 95.8699C29.2093 95.9283 29.2384 95.9866 29.2676 96.0451C29.4662 96.4656 29.6765 96.8802 29.8925 97.2948C29.8983 97.3065 29.9041 97.3182 29.91 97.3298C30.1436 97.7912 30.3831 98.2408 30.6284 98.6964C30.9204 99.2337 31.2182 99.7651 31.5277 100.291C31.738 100.659 31.9541 101.021 32.1702 101.383C32.1818 101.394 32.1876 101.406 32.1876 101.412C32.4563 101.856 32.7307 102.294 33.0111 102.732C33.4783 103.462 33.9571 104.186 34.4535 104.904C34.6696 105.22 34.8916 105.529 35.1135 105.839C35.3004 106.101 35.4872 106.358 35.68 106.621C35.9662 107.013 36.2582 107.398 36.5502 107.783C36.8363 108.157 37.1225 108.519 37.4145 108.887C37.578 109.092 37.7414 109.296 37.905 109.495C38.0101 109.623 38.1152 109.751 38.2204 109.88C38.4189 110.114 38.6116 110.347 38.8102 110.581C39.3475 111.211 39.8964 111.836 40.4571 112.455C40.7257 112.759 41.006 113.057 41.2864 113.355C41.4908 113.571 41.6952 113.793 41.8996 114.009C42.1916 114.312 42.4777 114.61 42.7756 114.902C43.1961 115.328 43.6283 115.755 44.0604 116.175C44.4108 116.514 44.7612 116.847 45.1175 117.174C45.17 117.227 45.2226 117.279 45.2752 117.32C45.6372 117.664 46.0051 117.997 46.3789 118.33C47.0623 118.944 47.7572 119.539 48.4638 120.129C48.6391 120.275 48.8143 120.421 48.9953 120.573C49.3516 120.865 49.7137 121.157 50.0815 121.449C51.3546 122.459 52.6569 123.434 53.9885 124.375C54.0118 124.392 54.041 124.41 54.0644 124.427C59.2561 128.083 64.9033 130.799 70.7667 132.58C72.7989 133.199 74.8604 133.707 76.9395 134.104C86.1491 135.856 95.6916 135.395 104.726 132.732C110.8 130.945 116.645 128.159 122.012 124.375C122.433 124.077 122.853 123.773 123.274 123.469C123.315 123.434 123.355 123.405 123.402 123.376C123.817 123.067 124.231 122.757 124.64 122.448C125.067 122.12 125.493 121.788 125.919 121.449H125.925C126.345 121.11 126.76 120.772 127.175 120.433C127.595 120.088 128.004 119.738 128.413 119.387C128.822 119.037 129.224 118.687 129.622 118.33C130.025 117.968 130.422 117.612 130.813 117.244C131.204 116.882 131.59 116.514 131.975 116.14C132.361 115.772 132.74 115.399 133.114 115.019C133.488 114.64 133.861 114.26 134.229 113.875C134.597 113.483 134.965 113.092 135.333 112.695C135.684 112.309 136.028 111.924 136.373 111.527C136.641 111.223 136.91 110.914 137.173 110.604C137.938 109.699 138.685 108.776 139.409 107.836C139.701 107.451 139.999 107.065 140.28 106.674C140.321 106.627 140.356 106.575 140.391 106.528C140.589 106.265 140.782 105.996 140.969 105.728C141.401 105.121 141.821 104.513 142.23 103.894C142.458 103.555 142.686 103.211 142.902 102.866C143.235 102.346 143.562 101.827 143.883 101.295C144.105 100.921 144.333 100.542 144.554 100.162C144.858 99.6309 145.156 99.0877 145.454 98.5445C145.67 98.1357 145.886 97.7269 146.096 97.3182C146.312 96.9036 146.523 96.4831 146.721 96.0626C146.756 96.0042 146.785 95.9458 146.809 95.8873C147.253 94.9821 147.667 94.0653 148.053 93.1426C148.076 93.1017 148.094 93.0666 148.105 93.0257C148.298 92.5703 148.485 92.1147 148.666 91.6533C148.859 91.1744 149.046 90.6897 149.221 90.1992C149.402 89.7145 149.577 89.2239 149.74 88.7334C149.863 88.3713 149.986 88.0034 150.103 87.6354C150.196 87.3434 150.284 87.0514 150.371 86.7594C150.412 86.6309 150.453 86.4966 150.488 86.3681C150.576 86.082 150.657 85.8016 150.733 85.5155C150.85 85.095 150.961 84.6745 151.072 84.2482C155.44 53.4132 127.403 19.2171 99.3884 4.55292C92.2636 0.821227 83.7373 0.821227 76.6126 4.55292C75.9819 4.88 75.3569 5.23033 74.7262 5.59241L74.7204 5.59823C47.3481 21.3313 20.6594 54.1084 24.9285 84.2483Z" fill="#4D5A6A"/>
<g opacity="0.4">
<path d="M77.2252 134.043C76.4314 133.837 75.64 133.62 74.8545 133.38C68.9911 131.599 63.3439 128.884 58.1522 125.228C58.1288 125.21 58.0994 125.193 58.0761 125.175C56.7447 124.235 55.4424 123.26 54.1692 122.249C53.8013 121.957 53.4392 121.665 53.083 121.373C52.902 121.222 52.7269 121.076 52.5516 120.93C51.845 120.34 51.15 119.744 50.4667 119.131C50.0929 118.798 49.725 118.465 49.363 118.121C49.3105 118.08 49.258 118.027 49.2053 117.975C48.8492 117.648 48.4987 117.314 48.1483 116.976C47.7163 116.555 47.2842 116.129 46.8637 115.703C46.5657 115.411 46.2796 115.113 45.9877 114.809C45.7832 114.593 45.5787 114.371 45.3743 114.155C45.0943 113.857 44.8137 113.56 44.5451 113.256C43.9845 112.637 43.4356 112.012 42.8983 111.381C42.6998 111.148 42.507 110.914 42.3083 110.68C42.2034 110.552 42.0982 110.424 41.993 110.295C41.8296 110.096 41.6662 109.892 41.5025 109.688C41.2105 109.32 40.9245 108.958 40.6382 108.584C40.3463 108.198 40.0542 107.813 39.7683 107.422C39.5755 107.159 39.3884 106.902 39.2017 106.639C38.9798 106.33 38.758 106.02 38.5418 105.705C38.0453 104.986 37.5666 104.262 37.0992 103.532C36.8189 103.094 36.5446 102.656 36.276 102.212C36.276 102.207 36.27 102.195 36.2583 102.183C36.0425 101.821 35.8263 101.459 35.6158 101.091C35.3064 100.566 35.0084 100.034 34.7164 99.4969C34.4712 99.0413 34.2319 98.5919 33.9984 98.1305C33.9924 98.1188 33.9865 98.1071 33.9808 98.0954C33.7646 97.6807 33.5545 97.2659 33.356 96.8455C33.3266 96.7871 33.2975 96.7287 33.2684 96.6704C33.0523 96.2208 32.8419 95.7711 32.6377 95.3154C32.4215 94.8483 32.2111 94.3693 32.0126 93.8965C31.8084 93.4175 31.6097 92.9386 31.4228 92.4539C31.2301 91.9751 31.043 91.4903 30.8679 90.9999C30.6985 90.5559 30.5408 90.1062 30.3891 89.6508C30.3423 89.5165 30.2956 89.3761 30.2487 89.2359C30.1438 88.9208 30.0386 88.6055 29.9393 88.2841C29.8635 88.0389 29.7816 87.7879 29.7115 87.5367C29.6707 87.4198 29.6414 87.3089 29.6063 87.1919C29.5188 86.8885 29.4312 86.5849 29.3437 86.2751C29.2328 85.8722 29.1219 85.4576 29.0167 85.0487C24.7998 55.2783 50.7865 22.9344 77.802 6.98486C58.7976 24.2706 44.4179 48.4902 47.6344 71.2138C47.7397 71.6227 47.8506 72.0374 47.9615 72.4403C48.0491 72.7499 48.1369 73.0534 48.2244 73.357C48.2595 73.474 48.2886 73.5849 48.3293 73.7017C48.3994 73.9527 48.4813 74.2039 48.5571 74.4492C48.6563 74.7705 48.7615 75.0859 48.8667 75.401C48.9132 75.5413 48.96 75.6813 49.0067 75.8159C49.1587 76.2713 49.3161 76.721 49.4855 77.1647C49.6609 77.6555 49.8477 78.1399 50.0405 78.6191C50.2272 79.1038 50.426 79.5826 50.6301 80.0613C50.8289 80.5344 51.0391 81.0135 51.2552 81.4806C51.4596 81.936 51.6698 82.386 51.886 82.8353C51.915 82.8938 51.9441 82.9522 51.9735 83.0106C52.172 83.4309 52.3821 83.8458 52.5983 84.2604C52.6043 84.2718 52.6099 84.2838 52.616 84.2952C52.8495 84.7566 53.0887 85.2063 53.3343 85.662C53.6262 86.1993 53.924 86.7308 54.2337 87.2563C54.4438 87.6242 54.6599 87.9863 54.8761 88.3485C54.8875 88.3599 54.8935 88.3719 54.8935 88.3776C55.1621 88.8213 55.4367 89.2593 55.7168 89.6973C56.1842 90.4272 56.6629 91.1516 57.1594 91.8699C57.3755 92.1852 57.5974 92.4946 57.8192 92.8043C58.0063 93.067 58.193 93.3239 58.3858 93.5869C58.6721 93.9781 58.9641 94.3636 59.2561 94.7491C59.5421 95.1227 59.8282 95.4848 60.1201 95.8527C60.2838 96.0571 60.4472 96.2616 60.6109 96.4601C60.7162 96.5887 60.8211 96.717 60.9263 96.8456C61.1248 97.0792 61.3175 97.3127 61.516 97.5465C62.0532 98.177 62.6021 98.8021 63.1628 99.4211C63.4317 99.7248 63.7121 100.023 63.9923 100.321C64.1967 100.536 64.4009 100.759 64.6054 100.974C64.8974 101.278 65.1837 101.576 65.4814 101.868C65.902 102.294 66.3341 102.721 66.7663 103.141C67.1168 103.48 67.4669 103.813 67.8234 104.14C67.8758 104.192 67.9283 104.245 67.9808 104.286C68.343 104.63 68.7108 104.963 69.0846 105.296C69.7682 105.909 70.4628 106.505 71.1696 107.095C71.3448 107.241 71.5201 107.387 71.7009 107.539C72.0574 107.831 72.4192 108.123 72.7874 108.415C74.0603 109.425 75.3626 110.4 76.6943 111.34C76.7176 111.358 76.7467 111.375 76.7701 111.393C81.9619 115.049 87.6091 117.764 93.4724 119.546C95.5047 120.165 97.5661 120.673 99.6452 121.07C99.5457 121.051 99.4467 121.028 99.3472 121.009C100.607 121.336 101.874 121.626 103.149 121.87C110.768 123.319 118.615 123.249 126.214 121.675C126.302 121.606 126.391 121.538 126.479 121.468C126.061 121.8 125.642 122.127 125.224 122.448C124.815 122.758 124.401 123.067 123.986 123.377C123.939 123.406 123.898 123.435 123.857 123.47C123.437 123.774 123.017 124.077 122.596 124.375C117.229 128.16 111.383 130.945 105.31 132.733C96.2754 135.395 86.733 135.857 77.5234 134.105C76.4366 133.897 75.3552 133.657 74.2795 133.389C75.2565 133.632 76.2389 133.85 77.2252 134.043Z" fill="#000072"/>
</g>
<g opacity="0.55">
<path d="M64.7044 12.4963C66.8593 11.0363 69.0377 9.67557 71.216 8.42004L71.2218 8.41422C71.8525 8.05214 72.4773 7.7017 73.1081 7.37473C80.2329 3.64304 88.7592 3.64304 95.8839 7.37473C123.898 22.0388 151.936 56.2376 147.568 87.0726C147.457 87.4989 147.346 87.9194 147.229 88.3399C147.153 88.626 147.071 88.9064 146.984 89.1925C146.949 89.321 146.908 89.4553 146.867 89.5838C146.779 89.8757 146.692 90.1678 146.598 90.4598C146.481 90.8277 146.359 91.1957 146.236 91.5578C146.073 92.0483 145.897 92.5389 145.716 93.0236C145.541 93.5142 145.354 93.9988 145.162 94.4777C144.981 94.9391 144.794 95.3946 144.601 95.8501C144.589 95.891 144.572 95.926 144.548 95.967C144.163 96.8897 143.748 97.8065 143.304 98.7117C143.281 98.7701 143.252 98.8285 143.217 98.8869C143.018 99.3074 142.808 99.7278 142.592 100.143C142.382 100.551 142.166 100.96 141.95 101.369C141.652 101.912 141.354 102.455 141.05 102.987C140.828 103.366 140.601 103.746 140.379 104.12C140.058 104.651 139.73 105.171 139.398 105.691C139.182 106.035 138.954 106.38 138.726 106.718C138.317 107.337 137.897 107.945 137.464 108.552C137.278 108.821 137.085 109.09 136.886 109.352C136.851 109.399 136.816 109.452 136.775 109.498C136.495 109.89 136.197 110.275 135.905 110.66C135.181 111.601 134.434 112.523 133.668 113.429C133.406 113.738 133.137 114.048 132.868 114.351C132.524 114.748 132.179 115.134 131.829 115.519C131.461 115.916 131.093 116.308 130.725 116.699C130.357 117.084 129.984 117.464 129.61 117.844C129.236 118.223 128.856 118.597 128.471 118.965C128.085 119.338 127.7 119.706 127.309 120.069C126.918 120.437 126.52 120.793 126.117 121.155C125.72 121.511 125.317 121.861 124.909 122.212C124.5 122.562 124.091 122.913 123.67 123.257C123.256 123.596 122.841 123.935 122.421 124.273H122.415C121.989 124.612 121.562 124.945 121.136 125.272C120.756 125.558 120.371 125.844 119.986 126.136C120.47 125.821 120.949 125.494 121.428 125.155C121.849 124.857 122.269 124.554 122.69 124.25C122.73 124.215 122.771 124.186 122.818 124.156C123.233 123.847 123.647 123.537 124.056 123.228C124.482 122.901 124.909 122.568 125.335 122.229H125.341C125.761 121.891 126.176 121.552 126.591 121.213C127.011 120.869 127.42 120.518 127.829 120.168C128.237 119.817 128.64 119.467 129.038 119.111C129.441 118.749 129.838 118.392 130.229 118.024C130.62 117.662 131.006 117.294 131.391 116.921C131.776 116.553 132.156 116.179 132.53 115.799C132.904 115.42 133.277 115.04 133.645 114.655C134.013 114.264 134.381 113.872 134.749 113.475C135.099 113.09 135.444 112.704 135.789 112.307C136.057 112.004 136.326 111.694 136.589 111.385C137.354 110.479 138.101 109.557 138.825 108.616C139.117 108.231 139.415 107.845 139.696 107.454C139.736 107.407 139.771 107.355 139.806 107.308C140.005 107.045 140.198 106.777 140.385 106.508C140.817 105.901 141.237 105.293 141.646 104.674C141.874 104.336 142.102 103.991 142.318 103.647C142.651 103.127 142.978 102.607 143.299 102.076C143.521 101.702 143.748 101.322 143.97 100.943C144.274 100.411 144.572 99.868 144.87 99.3249C145.086 98.916 145.302 98.5072 145.512 98.0985C145.728 97.6839 145.939 97.2634 146.137 96.8429C146.172 96.7845 146.201 96.7261 146.225 96.6676C146.668 95.7625 147.083 94.8456 147.469 93.9229C147.492 93.882 147.509 93.847 147.521 93.806C147.714 93.3506 147.901 92.895 148.082 92.4337C148.274 91.9547 148.461 91.4701 148.637 90.9795C148.818 90.4948 148.993 90.0042 149.156 89.5137C149.279 89.1516 149.402 88.7837 149.518 88.4158C149.612 88.1238 149.699 87.8318 149.787 87.5398C149.828 87.4113 149.869 87.277 149.904 87.1486C149.991 86.8624 150.073 86.5821 150.149 86.2959C150.266 85.8755 150.377 85.4549 150.488 85.0286C154.856 54.1936 126.818 19.9949 98.8041 5.33075C91.6794 1.59906 83.1531 1.59906 76.0283 5.33075C75.3977 5.65783 74.7727 6.00816 74.142 6.37024L74.1362 6.37606C70.9648 8.19808 67.8055 10.2479 64.7044 12.4963Z" fill="white"/>
</g>
<path d="M88.0005 136.887C100.277 136.888 112.551 133.194 123.022 125.807C123.45 125.504 123.875 125.197 124.3 124.889C124.322 124.874 124.343 124.857 124.365 124.84C124.394 124.821 124.422 124.801 124.451 124.78C124.891 124.451 125.298 124.147 125.698 123.844C126.112 123.527 126.518 123.209 126.924 122.887C126.959 122.864 126.991 122.84 127.023 122.814C127.434 122.483 127.839 122.152 128.244 121.821C128.716 121.435 129.135 121.076 129.553 120.718C129.972 120.358 130.385 119.999 130.792 119.634L130.849 119.583C131.243 119.229 131.63 118.88 132.013 118.52C132.404 118.158 132.799 117.781 133.195 117.398C133.583 117.027 133.976 116.641 134.362 116.248C134.758 115.846 135.131 115.468 135.497 115.083C135.877 114.68 136.247 114.286 136.618 113.886C136.989 113.477 137.343 113.082 137.696 112.675C137.962 112.375 138.239 112.056 138.509 111.736C139.311 110.788 140.081 109.836 140.798 108.905L140.991 108.65C141.22 108.349 141.448 108.048 141.668 107.743C141.709 107.693 141.747 107.641 141.784 107.59C142 107.304 142.206 107.016 142.406 106.729C142.875 106.07 143.299 105.454 143.692 104.86C143.922 104.517 144.16 104.157 144.386 103.797C144.719 103.278 145.054 102.745 145.382 102.2L145.588 101.854C145.748 101.586 145.909 101.316 146.067 101.046C146.368 100.519 146.656 99.9953 146.943 99.4721L146.989 99.3876C147.222 98.9482 147.442 98.5331 147.655 98.1184C147.866 97.7127 148.076 97.2926 148.276 96.8722C148.324 96.7844 148.369 96.6954 148.407 96.6064C148.878 95.6308 149.282 94.7417 149.638 93.8926C149.672 93.8246 149.71 93.743 149.744 93.6491C149.934 93.1989 150.118 92.7486 150.297 92.2927C150.492 91.8068 150.688 91.3004 150.871 90.7879C151.05 90.3078 151.232 89.7975 151.402 89.2871C151.526 88.9221 151.652 88.5438 151.773 88.1654C151.868 87.8659 151.958 87.5649 152.049 87.2636C152.089 87.1371 152.137 86.9807 152.178 86.8311C152.257 86.5721 152.345 86.271 152.427 85.9633C152.54 85.5545 152.654 85.1251 152.767 84.6897C152.784 84.6253 152.797 84.5598 152.806 84.4941C155.452 65.8212 146.654 48.5406 138.808 37.3319C128.894 23.1675 114.822 10.6543 100.201 3.00094C92.5609 -1.00031 83.4393 -1.00031 75.7996 3.00094C61.1785 10.6544 47.1064 23.1678 37.1918 37.3319C29.3459 48.5406 20.5488 65.8213 23.1938 84.4941C23.2033 84.5583 23.2159 84.6222 23.2322 84.685C23.3394 85.1031 23.453 85.5272 23.5666 85.9394L23.8668 86.9851C23.8931 87.0757 23.9194 87.1649 23.9498 87.2565C24.0024 87.4407 24.0598 87.6251 24.1171 87.807L24.1776 88C24.2734 88.3105 24.3743 88.6145 24.4748 88.9181L24.4979 88.987C24.5484 89.1377 24.5973 89.2852 24.6468 89.4264C24.7993 89.8837 24.9654 90.3567 25.1431 90.8234C25.313 91.3009 25.5081 91.8075 25.71 92.3082C25.8941 92.7867 26.1008 93.2847 26.3127 93.7825C26.5163 94.2662 26.735 94.7642 26.9595 95.2501C27.1615 95.7009 27.3782 96.1646 27.6011 96.6287L27.7026 96.8314C27.8913 97.2336 28.1122 97.669 28.3394 98.1044C28.5871 98.5953 28.8337 99.0579 29.0856 99.5261C29.39 100.087 29.6982 100.636 30.0174 101.179C30.2224 101.538 30.4444 101.909 30.6658 102.28C30.6684 102.284 30.6705 102.288 30.6731 102.292C30.6784 102.301 30.6837 102.31 30.6889 102.319C30.9649 102.775 31.2474 103.226 31.5355 103.676C32.0493 104.479 32.5325 105.206 33.0121 105.9C33.2314 106.22 33.4607 106.54 33.6894 106.859C33.8782 107.124 34.069 107.387 34.2662 107.656C34.5586 108.055 34.8558 108.448 35.1533 108.841C35.4515 109.23 35.7438 109.601 36.0431 109.977C36.2151 110.192 36.3839 110.403 36.5532 110.608L37.4755 111.716C38.0255 112.361 38.5914 113.005 39.1588 113.631C39.4165 113.923 39.7015 114.227 39.9865 114.53L40.6281 115.213C40.9478 115.546 41.2428 115.853 41.5495 116.154C41.957 116.567 42.3977 117.002 42.8389 117.431C43.1955 117.776 43.5483 118.111 43.9075 118.441C43.9742 118.507 44.0421 118.571 44.1094 118.629C44.4717 118.973 44.8398 119.305 45.2143 119.639C45.9399 120.284 46.6551 120.901 47.3409 121.473L47.8682 121.914C48.2474 122.225 48.617 122.523 48.9915 122.821C50.2819 123.845 51.6234 124.849 52.9776 125.806C52.9881 125.813 53.0228 125.837 53.0423 125.85C53.0471 125.853 53.0518 125.857 53.0565 125.86C63.51 133.212 75.7568 136.887 88.0005 136.887ZM122.204 122.081C121.802 122.371 121.401 122.661 120.999 122.945C101.295 136.847 74.8002 136.868 55.0714 122.994V122.994C55.0441 122.975 55.0147 122.954 54.9973 122.943C53.6974 122.025 52.4096 121.06 51.1701 120.077C50.8099 119.79 50.4549 119.504 50.1058 119.218L49.5862 118.784C48.9288 118.235 48.2411 117.641 47.5432 117.021C47.1846 116.702 46.8307 116.382 46.483 116.051C46.4531 116.022 46.4215 115.994 46.3889 115.968L46.3563 115.935C46.3384 115.917 46.32 115.9 46.3016 115.883C45.9566 115.566 45.6174 115.244 45.2782 114.916C44.8586 114.508 44.4348 114.09 44.0236 113.672C43.7202 113.375 43.4493 113.093 43.1737 112.806L42.5606 112.152C42.2788 111.853 42.019 111.577 41.7702 111.295C41.2117 110.679 40.6695 110.061 40.1437 109.444L39.2639 108.388C39.0993 108.188 38.941 107.991 38.7827 107.793C38.5003 107.437 38.2205 107.083 37.9409 106.718C37.6605 106.348 37.3739 105.97 37.0932 105.586C36.9054 105.33 36.7229 105.079 36.5405 104.822C36.3223 104.518 36.1076 104.219 35.8984 103.913C35.4383 103.248 34.9776 102.554 34.4865 101.787C34.2147 101.362 33.948 100.937 33.6871 100.506C33.6829 100.499 33.6787 100.492 33.6746 100.485C33.4637 100.132 33.2534 99.7791 33.0483 99.4207C32.7386 98.8937 32.4504 98.3797 32.168 97.86C31.9329 97.4235 31.6999 96.9868 31.4733 96.5387C31.4702 96.5324 31.4496 96.4911 31.446 96.4849C31.2409 96.091 31.041 95.6972 30.8522 95.2978L30.7444 95.0805C30.5498 94.675 30.3459 94.2399 30.1487 93.7987C29.932 93.3307 29.7301 92.8708 29.5392 92.417C29.3399 91.9489 29.149 91.4888 28.9697 91.0235C28.7756 90.5412 28.5974 90.0782 28.4301 89.61C28.2566 89.1535 28.1067 88.7273 27.9626 88.2955L27.8007 87.8146C27.7071 87.5333 27.6135 87.2519 27.5251 86.9657L27.4604 86.7585C27.4093 86.5954 27.3573 86.4306 27.311 86.2658C27.3009 86.2284 27.2894 86.1917 27.2763 86.155C27.2595 86.1061 27.2464 86.0585 27.2327 86.0107L26.9408 84.9963C26.8445 84.6459 26.7447 84.2746 26.6495 83.9062C24.7458 70.2417 29.507 54.42 40.0622 39.3412C49.666 25.6215 63.2837 13.5071 77.4248 6.10509C84.0464 2.6365 91.9533 2.6365 98.575 6.10509C112.716 13.5071 126.334 25.6212 135.938 39.3412C146.492 54.4193 151.253 70.2404 149.351 83.9044C149.25 84.288 149.15 84.6674 149.045 85.0465C148.969 85.3326 148.893 85.5918 148.812 85.8566C148.769 86.0126 148.734 86.1248 148.7 86.2321C148.608 86.5378 148.523 86.8205 148.433 87.1034C148.319 87.4626 148.199 87.8199 148.08 88.1714C147.921 88.6499 147.753 89.1209 147.579 89.5863C147.403 90.0788 147.224 90.5421 147.04 90.9998C146.859 91.461 146.678 91.9022 146.491 92.3434C146.488 92.3516 146.484 92.3597 146.481 92.3681C146.465 92.4009 146.45 92.4343 146.436 92.4669C146.091 93.2918 145.697 94.1608 145.231 95.1241C145.22 95.1473 145.209 95.1707 145.199 95.1944C145.177 95.2332 145.156 95.273 145.137 95.3135C144.948 95.7134 144.748 96.1139 144.542 96.5083C144.33 96.9203 144.117 97.3228 143.905 97.7257L143.872 97.7856C143.594 98.2918 143.316 98.7977 143.033 99.2933C142.889 99.5394 142.733 99.8008 142.579 100.06L142.376 100.4C142.07 100.908 141.75 101.414 141.426 101.921C141.211 102.264 140.994 102.593 140.776 102.916C140.398 103.488 139.997 104.071 139.541 104.712C139.357 104.976 139.178 105.226 138.993 105.47C138.985 105.481 138.949 105.53 138.941 105.541L138.965 105.515C138.925 105.56 138.889 105.606 138.854 105.654C138.644 105.948 138.422 106.239 138.201 106.529L138.012 106.778C137.336 107.656 136.601 108.566 135.834 109.473C135.581 109.771 135.321 110.071 135.06 110.366C134.713 110.766 134.377 111.141 134.036 111.517C133.683 111.898 133.318 112.286 132.953 112.675C132.608 113.036 132.248 113.401 131.888 113.766C131.504 114.157 131.137 114.517 130.765 114.873C130.379 115.247 130.004 115.605 129.622 115.958C129.248 116.31 128.88 116.641 128.506 116.976L128.45 117.027C128.064 117.374 127.67 117.716 127.272 118.058C126.873 118.399 126.474 118.742 126.064 119.078C125.658 119.409 125.285 119.714 124.908 120.018C124.882 120.037 124.855 120.056 124.829 120.077C124.411 120.409 123.992 120.736 123.573 121.058C123.192 121.346 122.797 121.642 122.401 121.937C122.332 121.983 122.267 122.03 122.204 122.081ZM46.3484 115.935C46.3526 115.939 46.3568 115.942 46.361 115.945C46.3568 115.942 46.3526 115.939 46.3484 115.935ZM146.42 92.5477C146.419 92.5485 146.419 92.5493 146.419 92.5501C146.419 92.5493 146.419 92.5486 146.42 92.5477ZM146.527 92.2817C146.526 92.2822 146.526 92.2824 146.526 92.283C146.526 92.2824 146.526 92.2819 146.527 92.2817Z" fill="#000072"/>
<path d="M38.9235 93.0985C39.0312 93.4265 39.1483 93.7592 39.2702 94.1013C42.5174 102.419 48.8854 106.851 52.7418 101.833L50.4411 90.5354L48.876 82.8553C42.8596 78.746 34.8375 80.5921 38.9235 93.0985Z" fill="#FDBD91"/>
<path d="M48.8847 104.159C50.415 104.159 51.7948 103.408 52.9076 101.96L52.9655 101.884L49.064 82.7306L48.9941 82.6828C45.7096 80.4395 42.0128 80.0506 39.7963 81.7137C38.3528 82.7964 36.2945 85.7238 38.7257 93.1632C38.8335 93.493 38.9513 93.8274 39.0738 94.1713C41.2439 99.7305 44.823 103.629 48.1933 104.109C48.4267 104.142 48.6575 104.159 48.8847 104.159ZM52.5179 101.78C51.3468 103.264 49.8765 103.925 48.2521 103.695C45.0285 103.236 41.5789 99.4404 39.4649 94.0251C39.3456 93.6907 39.2288 93.3599 39.122 93.0333C37.3803 87.7032 37.709 83.8018 40.047 82.0475C42.1052 80.5028 45.5701 80.8799 48.6885 82.9804L52.5179 101.78Z" fill="#000072"/>
<g opacity="0.3">
<path d="M38.9235 93.0984C39.0312 93.4264 39.1483 93.7591 39.2702 94.1012C42.5174 102.418 48.8854 106.851 52.7418 101.833L50.4411 90.5353C49.9022 90.4931 49.5789 90.4697 49.5789 90.4697C47.2407 97.7843 43.8435 98.4355 39.3873 92.419C39.3873 92.419 39.2187 92.6674 38.9235 93.0984Z" fill="#000072"/>
</g>
<path d="M48.8762 105.354C50.7752 105.354 52.5194 104.428 53.8561 102.689C54.1049 102.366 54.2005 101.951 54.119 101.552L50.2533 82.5745C50.1808 82.2161 49.971 81.9003 49.6691 81.6942C45.916 79.1314 41.6297 78.7759 39.0046 80.8118C37.2435 82.177 34.7641 85.781 37.9481 94.5792C40.3182 100.651 44.1739 104.744 48.0232 105.292C48.3104 105.333 48.5948 105.354 48.8762 105.354ZM51.2279 101.444C50.4007 102.31 49.4757 102.659 48.4198 102.509C45.6596 102.116 42.5091 98.5312 40.5797 93.5898C38.7092 88.4195 38.7581 84.56 40.7269 83.034C42.2661 81.8408 45.0426 82.1321 47.6163 83.7134L51.2279 101.444Z" fill="#000072"/>
<path d="M137.065 93.0985C136.957 93.4265 136.84 93.7592 136.718 94.1013C133.471 102.419 127.103 106.851 123.246 101.833L125.547 90.5354L127.112 82.8553C133.129 78.746 141.151 80.5921 137.065 93.0985Z" fill="#FDBD91"/>
<path d="M127.103 104.242C127.334 104.242 127.569 104.225 127.807 104.191C131.206 103.707 134.811 99.7881 136.99 94.2073C137.116 93.8547 137.234 93.5198 137.343 93.1895V93.189C139.789 85.7004 137.703 82.7432 136.242 81.6468C133.997 79.9624 130.262 80.3505 126.948 82.6141L126.85 82.6809L122.934 101.905L123.015 102.01C124.145 103.48 125.546 104.242 127.103 104.242ZM136.787 93.0076C136.681 93.3334 136.564 93.6636 136.443 94.003C134.343 99.3826 130.919 103.158 127.725 103.613C126.122 103.841 124.722 103.218 123.559 101.759L127.375 83.0303C130.457 80.9656 133.869 80.5955 135.891 82.1141C138.199 83.8453 138.517 87.7137 136.787 93.0076Z" fill="#000072"/>
<g opacity="0.55">
<path d="M128.443 103.812C131.418 102.819 134.487 99.2293 136.437 94.239C136.558 93.897 136.675 93.5643 136.783 93.2362C140.869 80.7298 132.847 78.8836 126.831 82.9931L126.803 83.1336C132.243 81.0765 137.73 83.9303 134.206 94.7216C134.098 95.0496 133.981 95.3823 133.859 95.7244C132.477 99.2716 130.523 102.111 128.443 103.812Z" fill="white"/>
</g>
<path d="M127.112 105.354C127.393 105.354 127.678 105.334 127.965 105.293C131.814 104.744 135.67 100.651 138.028 94.6123C141.224 85.7811 138.745 82.1772 136.984 80.812C134.358 78.777 130.073 79.1314 126.32 81.6944C126.018 81.9005 125.808 82.2163 125.736 82.5747L121.869 101.552C121.788 101.951 121.884 102.366 122.132 102.69C123.469 104.428 125.213 105.354 127.112 105.354ZM132.822 82.3019C133.779 82.3019 134.626 82.5414 135.261 83.0341C137.23 84.5602 137.279 88.4197 135.396 93.6229C133.479 98.5313 130.329 102.116 127.568 102.509C126.511 102.659 125.589 102.311 124.76 101.444L128.372 83.7136C129.883 82.7854 131.464 82.3019 132.822 82.3019Z" fill="#000072"/>
<path d="M49.7243 90.8212V97.3156C49.7243 108.487 55.0708 119.081 64.2783 125.407C64.4096 125.496 64.5408 125.58 64.6673 125.669C78.7106 135.083 97.0976 135.083 111.141 125.674C111.268 125.585 111.399 125.496 111.53 125.407C120.742 119.086 126.089 108.491 126.089 97.3157V90.8213C126.089 90.8213 126.065 90.4043 126.018 89.6545C125.672 83.727 124.102 57.1304 123.849 56.4509C115.489 33.9497 31.9135 39.4649 49.7243 90.8212Z" fill="#FDBD91"/>
<path d="M87.9089 133.058C96.0535 133.058 104.197 130.678 111.304 125.917C111.422 125.833 111.539 125.754 111.656 125.674C120.891 119.338 126.381 108.746 126.381 97.3155V90.821C126.38 90.8045 126.356 90.3869 126.31 89.6363C125.738 79.8591 124.381 57.0417 124.122 56.3489C121.928 50.4427 114.489 46.0665 103.714 44.3429C93.3122 42.6791 81.1958 43.8068 71.3033 47.3589C61.426 50.9058 39.5333 62.2442 49.4327 90.8702V97.3154C49.4327 108.74 54.9206 119.332 64.1131 125.647L64.2646 125.749C64.3439 125.802 64.4229 125.854 64.4996 125.908C71.6103 130.675 79.7602 133.058 87.9089 133.058ZM93.8543 44.1725C97.1941 44.1725 100.486 44.418 103.621 44.9197C114.183 46.6088 121.456 50.8488 123.574 56.5526C123.777 57.3008 124.861 74.8628 125.727 89.6714C125.774 90.4205 125.797 90.837 125.797 90.8375L125.797 97.3154C125.797 108.554 120.401 118.965 111.364 125.166C111.208 125.273 111.088 125.354 110.973 125.435C96.9599 134.823 78.8454 134.821 64.8296 125.427C64.7539 125.373 64.6713 125.318 64.5878 125.263L64.442 125.165C55.4093 118.96 50.0161 108.548 50.0161 97.3154L50.0003 90.7253C40.2314 62.5574 61.7813 51.3986 71.5003 47.9087C78.3225 45.4587 86.2125 44.1725 93.8543 44.1725Z" fill="#000072"/>
<g opacity="0.3">
<path d="M49.7243 90.8213V97.3157C49.7243 108.487 55.0708 119.081 64.2784 125.407C64.4096 125.496 64.5408 125.58 64.6674 125.669C78.7106 135.083 97.0977 135.083 111.141 125.674C111.268 125.585 111.399 125.496 111.53 125.407C111.82 125.206 112.111 124.999 112.397 124.789C99.1828 131.213 83.3449 130.257 70.9134 121.921C70.7869 121.832 70.6557 121.747 70.5246 121.658C61.317 115.333 55.9705 104.738 55.9705 93.5671L55.4151 85.3805C49.3704 67.9541 55.5581 57.5006 65.9607 49.9377C51.8048 56.9149 42.5597 70.1569 49.7243 90.8213Z" fill="#000072"/>
</g>
<g opacity="0.3">
<path d="M49.7243 90.8212V93.4593C53.9227 87.2741 54.7334 70.3958 54.7334 70.3958C58.4039 74.3819 79.0196 78.978 93.4875 71.2922C94.268 70.8777 95.1242 71.7066 94.7325 72.4987C94.556 72.8556 94.4846 72.9761 94.4846 72.9761C96.3875 74.1541 105.351 73.006 110.213 70.1766C111.566 69.3896 113.29 70.242 113.533 71.7878C114.622 78.7396 118.083 83.5792 125.489 90.8213C125.672 90.4324 125.85 90.0434 126.018 89.6545C125.672 83.727 124.102 57.1304 123.849 56.4509C115.489 33.9497 31.9135 39.4649 49.7243 90.8212Z" fill="#000072"/>
</g>
<g opacity="0.55">
<path d="M72.0615 129.61C84.76 134.816 99.4546 133.504 111.141 125.674C111.268 125.585 111.399 125.496 111.53 125.407C120.742 119.086 126.089 108.491 126.089 97.3155V90.8211C126.089 90.8211 124.135 57.2146 123.849 56.4508C122.092 51.7228 117.017 48.2319 110.255 46.1421C115.339 48.2648 119.074 51.3339 120.531 55.2513C120.817 56.0198 122.771 89.6215 122.771 89.6215V96.1161C122.771 107.292 117.424 117.886 108.212 124.212C108.081 124.296 107.936 124.368 107.819 124.475C98.7007 132.73 83.9446 133.344 72.0615 129.61Z" fill="white"/>
</g>
<path d="M87.9058 134.174C96.2665 134.174 104.626 131.73 111.921 126.841C112.055 126.751 112.19 126.66 112.325 126.568C121.823 120.05 127.494 109.114 127.494 97.3153V90.8211C127.494 90.7938 127.494 90.7668 127.492 90.7396C125.526 56.949 125.255 56.1988 125.166 55.9596C120.022 42.1181 91.0403 39.0867 70.9223 46.3123C61.339 49.7546 54.0832 55.2134 49.9382 62.0982C45.0609 70.2012 44.5161 79.9431 48.3186 91.0565V97.3153C48.3186 109.111 53.988 120.046 63.4845 126.565L63.8847 126.837C71.1807 131.728 79.5434 134.174 87.9058 134.174ZM124.683 90.8619V97.3153C124.683 108.187 119.468 118.256 110.734 124.25C110.608 124.336 110.483 124.421 110.357 124.505C96.7156 133.647 79.0892 133.646 65.452 124.502L65.0771 124.248C56.3435 118.253 51.1301 108.185 51.1301 97.3154V90.8212C51.1301 90.6645 51.1039 90.5086 51.0528 90.3606C41.6089 63.1346 62.4672 52.3371 71.8733 48.9583C92.2605 41.6362 118.204 45.6911 122.492 56.8376C122.753 58.653 123.937 78.0492 124.683 90.8619ZM122.521 56.9113C122.524 56.9195 122.528 56.9294 122.53 56.9376C122.528 56.93 122.524 56.9213 122.521 56.9113Z" fill="#000072"/>
<path d="M50.1647 42.6746C39.6216 56.1463 40.9337 79.5893 49.8133 91.8755C56.6076 88.1269 57.0575 70.3958 57.0575 70.3958C73.1391 74.7724 89.4128 72.1014 104.168 59.3888C104.482 64.3839 100.298 69.0181 100.298 69.0181C102.196 68.9619 103.897 68.6854 105.424 68.2262C110.761 66.6283 113.938 62.7627 115.883 57.9035C117.757 74.7724 117.874 78.521 126.089 90.8211C134.289 73.2494 135.798 51.5776 122.129 45.0972C141.186 38.537 134.158 25.2575 117.757 37.0517C125.803 25.4918 115.649 21.0356 113.54 33.7717C101.68 12.1092 49.579 19.7143 42.5174 44.3147L50.1459 42.6794C50.16 42.6746 50.1647 42.6746 50.1647 42.6746Z" fill="#AC3D50"/>
<path d="M49.7281 92.2558L49.9543 92.1309C56.3482 88.6034 57.2311 73.4202 57.3369 70.7732C74.4195 75.3135 90.0777 71.6932 103.893 60.0081C103.848 64.591 100.121 68.7787 100.081 68.8223L99.6231 69.3298L100.306 69.3098C102.166 69.2549 103.916 68.9846 105.509 68.5061C110.125 67.1238 113.473 64.0239 115.715 59.0447L115.818 59.9699C117.485 75.0745 117.933 79.1343 125.846 90.9833L126.134 91.4145L126.353 90.9446C134.612 73.2461 135.985 52.0213 122.875 45.1432C130.572 42.3485 133.599 38.5847 133.849 35.9467C133.98 34.5689 133.389 33.429 132.183 32.7373C129.924 31.4405 125.278 31.6724 118.818 35.9627C121.525 31.5344 121.448 28.3296 120.471 26.8605C119.898 25.9999 119.001 25.6276 118.018 25.8401C116.373 26.1932 114.343 28.2503 113.397 32.9352C106.874 22.0993 91.1399 19.7032 78.3987 21.1196C63.217 22.8069 46.148 30.6086 42.2367 44.2339L42.1026 44.702L49.4542 43.1263C39.2247 56.9636 41.001 80.1804 49.5768 92.0466L49.7281 92.2558ZM56.7752 70.0163L56.7657 70.3884C56.7609 70.5619 56.254 87.5971 49.8963 91.4894C41.4436 79.5439 39.8503 56.3278 50.3943 42.8544L50.764 42.3825L50.0504 42.4035L42.9387 43.9256C47.031 30.8502 63.6519 23.3461 78.4633 21.7C91.2839 20.2746 107.164 22.7343 113.284 33.9116L113.69 34.6533L113.828 33.819C114.65 28.8583 116.664 26.728 118.14 26.411C118.89 26.2508 119.545 26.5237 119.984 27.184C120.95 28.636 120.884 32.0475 117.518 36.8849L116.544 38.284L117.928 37.2888C124.813 32.3381 129.756 32.0154 131.893 33.2438C132.888 33.8149 133.376 34.7551 133.268 35.8915C133.038 38.3058 129.959 42.0932 122.034 44.8212L121.356 45.0545L122.004 45.3611C135.311 51.6699 134.111 72.6105 126.042 90.2249C118.487 78.8273 118.033 74.7124 116.398 59.9063L116.044 56.7137L115.611 57.7949C113.446 63.2049 110.087 66.5258 105.341 67.9467C103.986 68.354 102.51 68.6059 100.947 68.6974C102.028 67.3386 104.72 63.5115 104.46 59.3706L104.423 58.7843L103.978 59.1679C90.1097 71.1161 74.35 74.7998 57.1343 70.114L56.7752 70.0163Z" fill="#000072"/>
<g opacity="0.3">
<path d="M117.833 54.9667C117.135 56.3151 116.497 57.8352 116.075 59.6372C117.776 75.0487 118.165 78.9519 126.089 90.8211C127.016 88.8297 127.86 86.7913 128.6 84.7249C122.094 74.6323 121.333 68.9315 119.83 55.3342C119.715 54.2889 118.317 54.0331 117.833 54.9667Z" fill="#000072"/>
</g>
<g opacity="0.55">
<path d="M120.855 35.0508C131.173 30.679 134.907 38.2371 124.856 44.0382C139.363 37.7124 134.19 27.4131 120.855 35.0508Z" fill="white"/>
</g>
<g opacity="0.55">
<path d="M122.457 45.2612C122.448 45.2655 122.438 45.27 122.428 45.2743C121.129 45.8486 120.855 47.5532 121.948 48.4598C131.284 56.2006 130.929 73.6174 124.767 88.8016C125.179 89.4483 125.62 90.1231 126.089 90.8212C134.223 73.39 135.774 51.9291 122.457 45.2612Z" fill="white"/>
</g>
<g opacity="0.55">
<path d="M118.399 36.8642L118.431 36.8467C123.876 28.4638 118.922 23.6363 115.614 27.5021C117.441 27.7718 118.526 30.5976 116.497 35.0685C115.958 36.2544 117.256 37.4887 118.399 36.8642Z" fill="white"/>
</g>
<g opacity="0.55">
<path d="M52.8591 31.663C61.837 27.5208 73.8608 24.7515 84.7739 24.7C86.4561 27.9285 92.1259 27.7691 94.511 25.4731C100.649 26.5743 105.846 28.8984 109.089 32.7736C110.016 33.8841 111.83 33.8091 112.561 32.5581C112.603 32.4925 112.64 32.4222 112.673 32.3426C102.505 19.3768 68.205 18.3085 52.8591 31.663Z" fill="white"/>
</g>
<path d="M49.8144 93.2814C50.0448 93.2814 50.2783 93.2247 50.4923 93.1063C56.6916 89.6861 58.0763 77.057 58.3818 72.188C74.3864 76.0694 89.1385 72.8869 102.313 62.7177C101.361 65.6994 99.2814 68.0464 99.253 68.0776C98.8775 68.4964 98.7865 69.0996 99.0237 69.6097C99.255 70.1069 99.7526 70.4236 100.298 70.4236C100.312 70.4236 100.326 70.4236 100.341 70.4231C106.795 70.2248 111.707 67.6189 114.996 62.6614C116.48 75.9179 117.326 80.2307 124.92 91.6018C125.202 92.0235 125.685 92.2599 126.195 92.2229C126.702 92.1842 127.148 91.8758 127.362 91.4157C135.421 74.1477 136.975 53.5533 125.355 45.3553C132.001 42.4675 134.701 38.7599 134.958 36.0522C135.13 34.2403 134.321 32.6801 132.738 31.7714C130.611 30.5492 126.701 30.4598 121.454 33.1273C122.611 29.979 122.308 27.6115 121.398 26.2434C120.57 25.0006 119.217 24.4426 117.784 24.7511C115.719 25.1947 114.006 27.2065 112.946 30.316C105.513 20.7708 90.5335 18.6515 78.2756 20.0127C62.7247 21.7409 45.2193 29.8059 41.1665 43.9266C41.0297 44.4014 41.1528 44.9129 41.4899 45.2739C41.827 45.6351 42.3281 45.7921 42.8124 45.689L46.9946 44.7919C43.1895 51.0341 41.1849 59.0384 41.2995 67.738C41.4263 77.2916 44.1139 86.3894 48.6737 92.6989C48.9467 93.0764 49.3758 93.2814 49.8144 93.2814ZM57.0581 68.9902C56.7589 68.9902 56.4639 69.0856 56.2183 69.2682C55.8723 69.5258 55.6636 69.9283 55.6525 70.3599C55.5394 74.7277 54.3194 86.0774 50.1624 89.8952C42.5038 78.0283 41.2927 56.2918 51.2715 43.5411C51.6365 43.0752 51.6701 42.4308 51.3561 41.9293C51.0427 41.4274 50.4506 41.176 49.8695 41.3002L44.6813 42.4129C49.5528 30.9522 64.8571 24.3332 78.5863 22.8071C94.2486 21.0673 107.483 25.6355 112.307 34.4466C112.596 34.9727 113.185 35.2583 113.776 35.1576C114.367 35.0571 114.829 34.5928 114.927 34.0012C115.709 29.2764 117.524 27.6828 118.374 27.5002C118.582 27.4553 118.827 27.455 119.057 27.8012C119.636 28.6715 119.869 31.557 116.604 36.2488C116.212 36.8109 116.283 37.5729 116.771 38.0535C117.26 38.5334 118.023 38.5922 118.578 38.1931C124.619 33.8484 129.34 33.0628 131.338 34.21C131.958 34.5655 132.227 35.081 132.159 35.7862C131.946 38.0359 128.62 41.3764 121.671 43.7683C121.131 43.9541 120.757 44.4487 120.725 45.0193C120.694 45.5898 121.01 46.1228 121.527 46.3676C128.879 49.8534 130.685 57.7991 130.904 63.851C131.165 71.0259 129.336 79.6671 125.852 87.8956C119.518 78.0205 119.069 73.9532 117.505 59.7841L117.28 57.7482C117.208 57.1074 116.71 56.5973 116.071 56.5105C115.431 56.4235 114.817 56.7834 114.577 57.3817C112.314 63.0423 108.598 66.3092 103.265 67.2997C104.473 65.3041 105.766 62.3955 105.571 59.301C105.538 58.7684 105.206 58.3005 104.714 58.0934C104.223 57.8862 103.655 57.9751 103.251 58.3242C89.6793 70.0155 74.2637 73.6211 57.4266 69.0395C57.3053 69.0063 57.1812 68.9902 57.0581 68.9902Z" fill="#000072"/>
<path d="M57.0586 71.8018C57.6786 71.8018 58.2465 71.3883 58.4148 70.7609C58.6167 70.011 58.1724 69.2398 57.4225 69.0382C55.6766 68.5687 53.9112 68.0049 52.1754 67.3623C51.447 67.0931 50.6383 67.4647 50.3691 68.1927C50.0998 68.9207 50.4716 69.7295 51.1995 69.999C53.0158 70.6713 54.8636 71.2613 56.6926 71.7532C56.8146 71.786 56.9376 71.8018 57.0586 71.8018Z" fill="#000072"/>
<g opacity="0.3">
<path d="M49.8132 91.8754C56.6076 88.1268 57.0574 70.3957 57.0574 70.3957C73.139 74.7723 89.4128 72.1013 104.168 59.3888C104.482 64.3839 100.298 69.018 100.298 69.018C102.196 68.9618 103.897 68.6854 105.424 68.2262C113.118 55.5464 109.843 52.5568 98.7797 56.4554C68.0784 66.3612 45.7272 67.9122 50.1646 42.6746C39.6216 56.1464 40.9337 79.5892 49.8132 91.8754Z" fill="#000072"/>
</g>
<g opacity="0.2">
<path d="M57.6078 54.3903C57.6078 56.5198 61.7769 58.2461 66.92 58.2461C72.0629 58.2461 76.2322 56.5198 76.2322 54.3903C76.2322 52.2608 72.0629 52.2058 66.92 52.2058C61.7769 52.2057 57.6078 52.2608 57.6078 54.3903Z" fill="#FEFEFE"/>
</g>
<path d="M82.9796 116.815C82.9796 116.815 84.9961 118.103 90.2507 118.103C91.3906 118.182 94.6529 118.003 98.7755 114.239C98.7755 114.239 96.871 119.728 90.3734 119.728C90.3734 119.728 86.6765 120.064 82.9796 116.815Z" fill="#000072"/>
<path d="M112.814 92.4202C112.373 90.9865 111.317 89.7935 110.015 88.9819C108.707 88.1713 107.139 87.7564 105.584 87.7727C104.028 87.7834 102.482 88.2296 101.188 89.0359C99.9 89.8443 98.8427 91.0039 98.3489 92.4203C99.763 91.9344 100.967 91.5464 102.156 91.2965C103.337 91.0415 104.476 90.9153 105.613 90.8994C106.75 90.8879 107.885 90.9883 109.055 91.2371C110.233 91.4805 111.424 91.8781 112.814 92.4202Z" fill="#000072"/>
<path d="M62.4339 92.4202C63.8248 91.8781 65.0149 91.4805 66.1931 91.2371C67.3634 90.9883 68.4982 90.8879 69.6354 90.8994C70.7725 90.9152 71.911 91.0414 73.0919 91.2965C74.2809 91.5463 75.4854 91.9344 76.8994 92.4203C76.4056 91.0039 75.3484 89.8444 74.06 89.0359C72.7661 88.2297 71.2204 87.7836 69.664 87.7727C68.1093 87.7564 66.5415 88.1713 65.2331 88.9819C63.9315 89.7935 62.8754 90.9865 62.4339 92.4202Z" fill="#000072"/>
<path d="M104.169 107.358C101.5 107.358 99.3361 104.504 99.3361 100.984C99.3361 97.4628 101.5 94.6086 104.169 94.6086C106.837 94.6086 109.001 97.4628 109.001 100.984C109.001 104.504 106.837 107.358 104.169 107.358Z" fill="#000072"/>
<path d="M102.934 101.646C102.128 101.646 101.474 100.687 101.474 99.5049C101.474 98.3227 102.128 97.3643 102.934 97.3643C103.74 97.3643 104.394 98.3227 104.394 99.5049C104.394 100.687 103.74 101.646 102.934 101.646Z" fill="white"/>
<path d="M102.934 101.938C103.917 101.938 104.686 100.869 104.686 99.5047C104.686 98.1406 103.917 97.072 102.934 97.072C101.952 97.072 101.182 98.1406 101.182 99.5047C101.182 100.869 101.952 101.938 102.934 101.938ZM102.934 97.6562C103.567 97.6562 104.102 98.5026 104.102 99.5046C104.102 100.507 103.567 101.353 102.934 101.353C102.301 101.353 101.766 100.507 101.766 99.5046C101.766 98.5025 102.301 97.6562 102.934 97.6562Z" fill="#000072"/>
<path d="M70.7553 107.358C68.0864 107.358 65.9228 104.504 65.9228 100.984C65.9228 97.4628 68.0864 94.6086 70.7553 94.6086C73.4242 94.6086 75.5878 97.4628 75.5878 100.984C75.5878 104.504 73.4242 107.358 70.7553 107.358Z" fill="#000072"/>
<path d="M71.9897 101.646C71.1833 101.646 70.5296 100.687 70.5296 99.5049C70.5296 98.3227 71.1833 97.3643 71.9897 97.3643C72.796 97.3643 73.4497 98.3227 73.4497 99.5049C73.4497 100.687 72.796 101.646 71.9897 101.646Z" fill="white"/>
<path d="M71.9895 101.938C72.9723 101.938 73.7417 100.869 73.7417 99.5047C73.7417 98.1406 72.9723 97.072 71.9895 97.072C71.0072 97.072 70.2378 98.1406 70.2378 99.5047C70.2378 100.869 71.0072 101.938 71.9895 101.938ZM71.9895 97.6562C72.6226 97.6562 73.158 98.5026 73.158 99.5046C73.158 100.507 72.6226 101.353 71.9895 101.353C71.3563 101.353 70.8215 100.507 70.8215 99.5046C70.8215 98.5025 71.3563 97.6562 71.9895 97.6562Z" fill="#000072"/>
<path d="M17.3378 214.403C18.0872 218.108 20.0923 221.297 22.8572 223.56C25.622 225.819 29.1465 227.152 32.9294 227.152H140.349C147.915 227.152 154.437 221.819 155.941 214.403H17.3378Z" fill="#C6D3E3"/>
<path d="M32.9294 227.444H140.349C148.024 227.444 154.701 221.984 156.227 214.461L156.298 214.111H16.9805L17.0515 214.461C17.7898 218.111 19.786 221.423 22.672 223.786C25.56 226.145 29.2026 227.444 32.9294 227.444ZM155.58 214.695C153.976 221.765 147.628 226.86 140.349 226.86H32.9294C29.3372 226.86 25.8255 225.608 23.0415 223.334C20.3522 221.132 18.4644 218.075 17.6988 214.695H155.58Z" fill="#000072"/>
<path d="M32.9273 228.904H140.348C148.715 228.904 155.993 222.952 157.655 214.752C157.76 214.237 157.627 213.702 157.295 213.295C156.962 212.888 156.464 212.653 155.938 212.653H17.3364C16.8106 212.653 16.3131 212.888 15.9802 213.295C15.6473 213.702 15.5149 214.237 15.6194 214.753C17.2818 222.952 24.5608 228.904 32.9273 228.904ZM153.623 216.156C151.595 221.622 146.317 225.4 140.348 225.4H32.9272C26.9586 225.4 21.6805 221.621 19.6517 216.156H153.623Z" fill="#000072"/>
<g opacity="0.3">
<path d="M17.3378 214.403C18.0872 218.108 20.0923 221.297 22.8572 223.56C25.622 225.819 29.1465 227.152 32.9294 227.152H99.373C88.4532 226.635 78.7739 223.622 70.4432 217.876C70.4432 217.876 69.8695 216.475 68.5983 214.403L17.3378 214.403Z" fill="#000072"/>
</g>
<path d="M17.3791 147.044L22.9862 210.982C23.3273 214.883 26.5934 217.876 30.5107 217.876H142.768C146.68 217.876 149.946 214.883 150.292 210.982L155.894 147.044C156.447 140.765 151.496 135.36 145.197 135.36H28.0818C26.0198 135.36 24.1025 135.939 22.4746 136.936C19.1258 138.993 17.007 142.822 17.3791 147.044Z" fill="#C6D3E3"/>
<path d="M30.511 218.168H142.768C146.861 218.168 150.221 215.09 150.583 211.007L156.185 147.07C156.456 143.996 155.415 140.927 153.33 138.65C151.246 136.374 148.281 135.068 145.197 135.068H28.0821C26.0433 135.068 24.0518 135.628 22.3224 136.687C18.7239 138.897 16.7188 142.876 17.0884 147.07V147.07L22.6956 211.007C23.0521 215.09 26.4119 218.168 30.511 218.168ZM145.197 135.652C148.118 135.652 150.925 136.888 152.899 139.044C154.874 141.201 155.86 144.107 155.603 147.019L150.001 210.956C149.666 214.735 146.556 217.584 142.767 217.584H30.5109C26.7168 217.584 23.6073 214.735 23.2771 210.956L17.6698 147.019C17.3196 143.047 19.2191 139.278 22.6277 137.185C24.2647 136.182 26.151 135.652 28.082 135.652L145.197 135.652Z" fill="#000072"/>
<g opacity="0.75">
<path d="M19.1673 140.104C20.5368 139.463 22.0665 139.107 23.6892 139.107H140.804C147.104 139.107 152.055 144.512 151.502 150.791L145.9 214.728C145.812 215.726 145.533 216.661 145.099 217.503C147.91 216.594 150.018 214.072 150.292 210.982L155.894 147.044C156.447 140.765 151.496 135.36 145.197 135.36H28.082C24.3508 135.36 21.0898 137.257 19.1673 140.104Z" fill="white"/>
</g>
<path d="M30.5089 219.625H142.766C147.626 219.625 151.611 215.975 152.036 211.133L157.642 147.195C157.947 143.714 156.769 140.24 154.408 137.663C152.047 135.087 148.689 133.609 145.195 133.609H28.0805C24.5861 133.609 21.228 135.087 18.8674 137.663C16.5067 140.24 15.3283 143.714 15.6333 147.195L21.2396 211.133C21.6639 215.975 25.6489 219.625 30.5089 219.625ZM145.195 137.113C147.746 137.113 150.101 138.149 151.825 140.03C153.548 141.912 154.374 144.347 154.151 146.889L148.545 210.827C148.28 213.845 145.796 216.122 142.766 216.122H30.5089C27.4789 216.122 24.9948 213.845 24.7303 210.827L19.124 146.889C18.9011 144.348 19.7276 141.912 21.4509 140.03C23.1747 138.149 25.5289 137.113 28.0805 137.113H145.195Z" fill="#000072"/>
<g opacity="0.3">
<path d="M17.3792 147.044L22.9863 210.982C23.3274 214.883 26.5935 217.876 30.5107 217.876H131.77C69.4611 212.971 30.9086 187.798 22.4953 136.931L22.4746 136.936C19.1259 138.993 17.0071 142.822 17.3792 147.044Z" fill="#000072"/>
</g>
<g opacity="0.3">
<path d="M127.642 189.026L134.674 189.685C136.497 189.855 138.114 188.515 138.285 186.692L140.7 160.879C140.871 159.056 139.531 157.439 137.708 157.269L130.676 156.61C128.852 156.44 127.236 157.78 127.065 159.603L124.649 185.416C124.479 187.239 125.819 188.856 127.642 189.026Z" fill="white"/>
</g>
<path d="M105.414 175.969L99.0781 172.453C98.703 172.266 98.2812 172.266 97.9062 172.453L95.375 173.883V164.109H76.625V173.883L74.0937 172.453C73.7188 172.266 73.2969 172.266 72.9218 172.453L66.5859 175.969C66.2343 176.18 66 176.578 66 177C66 177.422 66.2343 177.82 66.5859 178.031L71.0938 180.516L83.0703 190.922H88.9297L100.906 180.516L105.414 178.031C105.766 177.82 106 177.422 106 177C106 176.578 105.766 176.18 105.414 175.969ZM86 179.18L80.0676 175.828H91.9323L86 179.18Z" fill="url(#paint0_linear_2_915)"/>
<path d="M105.414 183L100.906 180.516L86.5859 188.578C86.3984 188.672 86.1875 188.719 86 188.719C85.8125 188.719 85.6016 188.672 85.4141 188.578L71.0938 180.516L66.5859 183C66.2343 183.211 66 183.609 66 184.031C66 184.453 66.2343 184.851 66.5859 185.062L85.4141 195.609C85.6016 195.703 85.8125 195.75 86 195.75C86.1875 195.75 86.3984 195.703 86.5859 195.609L105.414 185.062C105.766 184.851 106 184.453 106 184.031C106 183.609 105.766 183.211 105.414 183ZM66.5859 171L85.4141 181.547C85.6016 181.641 85.8125 181.688 86 181.688C86.1875 181.688 86.3984 181.641 86.5859 181.547L105.414 171C105.766 170.789 106 170.391 106 169.969C106 169.547 105.766 169.148 105.414 168.938L86.5859 158.391C86.211 158.203 85.789 158.203 85.4141 158.391L66.5859 168.938C66.2343 169.148 66 169.547 66 169.969C66 170.391 66.2343 170.789 66.5859 171ZM89.8673 168.445C89.3985 168 89.3985 167.25 89.8673 166.805C90.3126 166.336 91.0625 166.336 91.5078 166.805L93.8516 169.148C94.3203 169.594 94.3203 170.344 93.8516 170.789L91.5078 173.133C91.0863 173.601 90.2891 173.602 89.8673 173.133C89.3985 172.687 89.3985 171.937 89.8673 171.492L91.3671 169.969L89.8673 168.445ZM84.2656 172.031L85.4375 167.344C85.6016 166.711 86.2343 166.336 86.8672 166.5C87.5001 166.64 87.875 167.273 87.7344 167.906L86.5625 172.594C86.3628 173.359 85.498 173.62 85.1328 173.437C84.5 173.297 84.125 172.664 84.2656 172.031ZM78.1485 169.148L80.4923 166.805C80.9376 166.336 81.6875 166.336 82.1328 166.805C82.6016 167.25 82.6016 168 82.1328 168.445L80.6329 169.969L82.1327 171.492C82.6015 171.937 82.6015 172.687 82.1327 173.133C81.7112 173.601 80.914 173.602 80.4922 173.133L78.1484 170.789C77.6797 170.344 77.6797 169.594 78.1485 169.148Z" fill="url(#paint1_linear_2_915)"/>
<defs>
<linearGradient id="paint0_linear_2_915" x1="86" y1="190.922" x2="86" y2="164.109" gradientUnits="userSpaceOnUse">
<stop stop-color="#ADDCFF"/>
<stop offset="0.5028" stop-color="#EAF6FF"/>
<stop offset="1" stop-color="#EAF6FF"/>
</linearGradient>
<linearGradient id="paint1_linear_2_915" x1="86" y1="195.75" x2="86" y2="158.25" gradientUnits="userSpaceOnUse">
<stop stop-color="#5558FF"/>
<stop offset="1" stop-color="#000072"/>
</linearGradient>
</defs>
</svg>
